<svg width="353" height="236" viewBox="0 0 353 236" fill="none" xmlns="http://www.w3.org/2000/svg">
<path d="M340.419 210.082C340.419 210.153 266.6 210.204 175.568 210.204C84.5364 210.204 10.6982 210.153 10.6982 210.082C10.6982 210.011 84.4988 209.96 175.568 209.96C266.637 209.96 340.419 210.016 340.419 210.082Z" fill="#263238"/>
<path d="M276.728 62.0197H71.5554C67.768 62.0197 64.6978 65.09 64.6978 68.8774V199.911C64.6978 203.698 67.768 206.769 71.5554 206.769H276.728C280.516 206.769 283.586 203.698 283.586 199.911V68.8774C283.586 65.09 280.516 62.0197 276.728 62.0197Z" fill="#455A64"/>
<path d="M57.5342 197.416H294.68V201.704C294.68 203.926 293.797 206.057 292.226 207.628C290.655 209.199 288.524 210.082 286.302 210.082H65.8933C63.6713 210.082 61.5404 209.199 59.9692 207.628C58.398 206.057 57.5154 203.926 57.5154 201.704V197.416H57.5342Z" fill="#455A64"/>
<path d="M152.567 196.061L155.508 200.744H196.917L199.647 196.061H152.567Z" fill="#263238"/>
<path d="M281.703 196.061C281.703 196.141 233.121 196.202 173.21 196.202C113.299 196.202 64.6978 196.141 64.6978 196.061C64.6978 195.981 113.271 195.92 173.21 195.92C233.149 195.92 281.703 195.981 281.703 196.061Z" fill="#263238"/>
<path d="M274.921 70.3411H72.5061C71.6561 70.3411 70.967 71.0302 70.967 71.8802V190.695C70.967 191.545 71.6561 192.234 72.5061 192.234H274.921C275.771 192.234 276.46 191.545 276.46 190.695V71.8802C276.46 71.0302 275.771 70.3411 274.921 70.3411Z" fill="#EBEBEB"/>
<path d="M276.239 192.413H70.7458L70.9671 79.4532H276.239V192.413Z" fill="white"/>
<path d="M87.8216 75.0525C87.8244 75.378 87.7304 75.6969 87.5516 75.9689C87.3728 76.2409 87.1173 76.4536 86.8174 76.5801C86.5175 76.7066 86.1868 76.7412 85.8672 76.6794C85.5477 76.6176 85.2537 76.4623 85.0225 76.2331C84.7914 76.004 84.6335 75.7113 84.569 75.3923C84.5045 75.0733 84.5362 74.7423 84.6601 74.4413C84.784 74.1404 84.9945 73.883 85.2649 73.7019C85.5353 73.5207 85.8535 73.424 86.1789 73.424C86.6125 73.4228 87.0289 73.5935 87.3369 73.8988C87.6448 74.204 87.8191 74.6189 87.8216 75.0525Z" fill="#263238"/>
<path d="M77.8765 75.0525C77.8793 75.3786 77.785 75.6981 77.6056 75.9704C77.4261 76.2427 77.1698 76.4554 76.869 76.5814C76.5683 76.7075 76.2369 76.7412 75.9169 76.6783C75.597 76.6154 75.303 76.4586 75.0724 76.2281C74.8419 75.9975 74.6851 75.7035 74.6222 75.3836C74.5593 75.0636 74.593 74.7322 74.7191 74.4315C74.8451 74.1308 75.0578 73.8744 75.3301 73.6949C75.6024 73.5155 75.9219 73.4212 76.248 73.424C76.6791 73.4265 77.0919 73.5988 77.3968 73.9037C77.7017 74.2086 77.874 74.6214 77.8765 75.0525Z" fill="#263238"/>
<path d="M82.649 75.0525C82.649 75.3774 82.5527 75.695 82.3722 75.9651C82.1917 76.2352 81.9352 76.4458 81.635 76.5701C81.3349 76.6944 81.0046 76.727 80.6859 76.6636C80.3673 76.6002 80.0746 76.4437 79.8449 76.214C79.6152 75.9843 79.4587 75.6916 79.3953 75.373C79.332 75.0543 79.3645 74.7241 79.4888 74.4239C79.6131 74.1238 79.8237 73.8672 80.0938 73.6867C80.3639 73.5062 80.6815 73.4099 81.0064 73.4099C81.2223 73.4093 81.4362 73.4513 81.6357 73.5337C81.8353 73.616 82.0166 73.737 82.1693 73.8896C82.3219 74.0423 82.4429 74.2236 82.5252 74.4232C82.6076 74.6227 82.6496 74.8366 82.649 75.0525Z" fill="#263238"/>
<path d="M276.46 181.503H70.7458V192.413H276.46V181.503Z" fill="#263238"/>
<path d="M78.5213 188.22V188.568H76.8834V188.295L77.7635 187.457C77.98 187.25 78.0177 187.118 78.0177 186.986C78.0177 186.784 77.8765 186.666 77.6035 186.666C77.5051 186.661 77.4068 186.679 77.3168 186.719C77.2268 186.759 77.1476 186.82 77.0858 186.897L76.7939 186.676C76.8971 186.553 77.0273 186.456 77.1744 186.393C77.3214 186.329 77.4812 186.3 77.6411 186.309C78.1118 186.309 78.4366 186.549 78.4366 186.944C78.4335 187.082 78.3983 187.217 78.3337 187.339C78.2692 187.461 78.177 187.566 78.0647 187.645L77.4717 188.21L78.5213 188.22Z" fill="white"/>
<path d="M78.7423 187.118C78.7424 187.066 78.7579 187.015 78.7871 186.971C78.8163 186.928 78.8577 186.894 78.9062 186.874C78.9546 186.855 79.0078 186.85 79.0591 186.86C79.1103 186.871 79.1573 186.896 79.194 186.934C79.2306 186.971 79.2553 187.018 79.265 187.07C79.2746 187.121 79.2687 187.174 79.248 187.222C79.2274 187.27 79.1929 187.311 79.1489 187.34C79.1049 187.368 79.0535 187.383 79.0012 187.382C78.9666 187.382 78.9323 187.376 78.9003 187.363C78.8682 187.35 78.8392 187.33 78.815 187.306C78.7908 187.281 78.7718 187.252 78.7593 187.22C78.7468 187.187 78.7411 187.153 78.7423 187.118ZM78.7423 188.328C78.7373 188.291 78.7403 188.253 78.7512 188.217C78.762 188.181 78.7804 188.148 78.8051 188.119C78.8299 188.091 78.8604 188.068 78.8946 188.053C78.9288 188.037 78.966 188.029 79.0036 188.029C79.0411 188.029 79.0783 188.037 79.1125 188.053C79.1467 188.068 79.1772 188.091 79.202 188.119C79.2267 188.148 79.2451 188.181 79.2559 188.217C79.2668 188.253 79.2698 188.291 79.2648 188.328C79.2698 188.365 79.2668 188.403 79.2559 188.439C79.2451 188.475 79.2267 188.508 79.202 188.536C79.1772 188.565 79.1467 188.587 79.1125 188.603C79.0783 188.619 79.0411 188.627 79.0036 188.627C78.966 188.627 78.9288 188.619 78.8946 188.603C78.8604 188.587 78.8299 188.565 78.8051 188.536C78.7804 188.508 78.762 188.475 78.7512 188.439C78.7403 188.403 78.7373 188.365 78.7423 188.328Z" fill="white"/>
<path d="M80.2957 186.346V188.568H79.8862V186.685H79.4155V186.337L80.2957 186.346Z" fill="white"/>
<path d="M82.7195 188.064H82.3242V188.568H81.9241V188.064H80.7051V187.796L81.8017 186.384H82.2442L81.2087 187.754H81.9382V187.306H82.3242V187.754H82.7195V188.064Z" fill="white"/>
<path d="M254.96 187.175H86.3484V187.942H254.96V187.175Z" fill="white"/>
<path d="M138.912 186.351H86.2213V188.403H138.912V186.351Z" fill="#191D88"/>
<path d="M140.616 187.561C140.616 188.068 140.466 188.564 140.184 188.986C139.902 189.408 139.502 189.736 139.033 189.931C138.564 190.125 138.048 190.175 137.551 190.076C137.053 189.978 136.596 189.733 136.237 189.374C135.879 189.016 135.634 188.559 135.535 188.061C135.436 187.563 135.487 187.048 135.681 186.579C135.875 186.11 136.204 185.71 136.626 185.428C137.048 185.146 137.544 184.996 138.051 184.996C138.732 184.996 139.384 185.266 139.865 185.747C140.346 186.228 140.616 186.88 140.616 187.561Z" fill="#191D88"/>
<path d="M259.205 187.537C259.205 187.64 259.183 187.741 259.14 187.834C259.098 187.928 259.037 188.011 258.961 188.08C258.885 188.149 258.796 188.201 258.698 188.233C258.601 188.265 258.498 188.276 258.396 188.267C257.789 188.267 257.455 187.876 257.455 187.161C257.436 187.009 257.451 186.854 257.498 186.709C257.545 186.563 257.623 186.429 257.727 186.317C257.831 186.204 257.958 186.116 258.099 186.058C258.241 185.999 258.394 185.973 258.547 185.979C258.751 185.974 258.952 186.025 259.13 186.125L258.975 186.436C258.849 186.358 258.703 186.321 258.556 186.328C258.137 186.328 257.873 186.586 257.873 187.09C257.95 187.011 258.042 186.949 258.144 186.909C258.247 186.869 258.357 186.852 258.467 186.859C258.56 186.853 258.654 186.866 258.743 186.897C258.831 186.928 258.912 186.976 258.981 187.04C259.051 187.103 259.106 187.18 259.145 187.265C259.183 187.351 259.204 187.443 259.205 187.537ZM258.805 187.537C258.805 187.306 258.631 187.161 258.363 187.161C258.307 187.151 258.249 187.154 258.193 187.169C258.138 187.183 258.086 187.209 258.042 187.245C257.997 187.281 257.961 187.326 257.935 187.378C257.91 187.429 257.895 187.485 257.892 187.542C257.892 187.749 258.057 187.914 258.363 187.914C258.416 187.922 258.47 187.92 258.522 187.906C258.574 187.892 258.623 187.868 258.664 187.834C258.706 187.8 258.74 187.758 258.765 187.71C258.789 187.662 258.803 187.61 258.805 187.556V187.537Z" fill="white"/>
<path d="M259.408 186.775C259.403 186.737 259.406 186.7 259.417 186.664C259.428 186.628 259.446 186.594 259.471 186.566C259.495 186.538 259.526 186.515 259.56 186.5C259.594 186.484 259.631 186.476 259.669 186.476C259.707 186.476 259.744 186.484 259.778 186.5C259.812 186.515 259.843 186.538 259.867 186.566C259.892 186.594 259.911 186.628 259.921 186.664C259.932 186.7 259.935 186.737 259.93 186.775C259.935 186.812 259.932 186.85 259.921 186.886C259.911 186.922 259.892 186.955 259.867 186.983C259.843 187.012 259.812 187.034 259.778 187.05C259.744 187.065 259.707 187.073 259.669 187.073C259.631 187.073 259.594 187.065 259.56 187.05C259.526 187.034 259.495 187.012 259.471 186.983C259.446 186.955 259.428 186.922 259.417 186.886C259.406 186.85 259.403 186.812 259.408 186.775ZM259.408 187.984C259.403 187.947 259.406 187.909 259.417 187.873C259.428 187.837 259.446 187.804 259.471 187.776C259.495 187.747 259.526 187.725 259.56 187.709C259.594 187.694 259.631 187.686 259.669 187.686C259.707 187.686 259.744 187.694 259.778 187.709C259.812 187.725 259.843 187.747 259.867 187.776C259.892 187.804 259.911 187.837 259.921 187.873C259.932 187.909 259.935 187.947 259.93 187.984C259.935 188.022 259.932 188.059 259.921 188.095C259.911 188.131 259.892 188.165 259.867 188.193C259.843 188.221 259.812 188.244 259.778 188.259C259.744 188.275 259.707 188.283 259.669 188.283C259.631 188.283 259.594 188.275 259.56 188.259C259.526 188.244 259.495 188.221 259.471 188.193C259.446 188.165 259.428 188.131 259.417 188.095C259.406 188.059 259.403 188.022 259.408 187.984Z" fill="white"/>
<path d="M260.194 187.113C260.194 186.384 260.594 185.97 261.135 185.97C261.676 185.97 262.077 186.384 262.077 187.113C262.077 187.843 261.676 188.257 261.135 188.257C260.594 188.257 260.194 187.843 260.194 187.113ZM261.634 187.113C261.634 186.577 261.427 186.332 261.121 186.332C260.815 186.332 260.608 186.577 260.608 187.113C260.608 187.65 260.82 187.9 261.121 187.9C261.422 187.9 261.634 187.65 261.634 187.113Z" fill="white"/>
<path d="M262.326 187.113C262.326 186.384 262.726 185.97 263.267 185.97C263.808 185.97 264.209 186.384 264.209 187.113C264.209 187.843 263.808 188.257 263.267 188.257C262.726 188.257 262.326 187.843 262.326 187.113ZM263.771 187.113C263.771 186.577 263.559 186.332 263.253 186.332C262.947 186.332 262.745 186.577 262.745 187.113C262.745 187.65 262.952 187.9 263.253 187.9C263.554 187.9 263.771 187.65 263.771 187.113Z" fill="white"/>
<path d="M267.776 186.977H267.004V184.76H269.221V185.527H267.776V186.977Z" fill="white"/>
<path d="M269.221 189.867H267.004V187.655H267.772V189.1H269.221V189.867Z" fill="white"/>
<path d="M272.751 189.867H270.539V189.1H271.979V187.65H272.751V189.867Z" fill="white"/>
<path d="M272.751 186.972H271.984V185.527H270.534V184.76H272.751V186.972Z" fill="white"/>
<path d="M98.9293 86.1696H86.8144L80.7616 96.6608L86.8144 107.147H98.9293L104.982 96.6608L98.9293 86.1696Z" fill="#EBEBEB"/>
<path d="M87.8028 98.7129C87.2396 98.1338 86.7438 97.4928 86.3249 96.802C85.9026 96.1048 85.7254 95.2864 85.8213 94.4769C85.9484 94.0232 86.0505 93.5628 86.1273 93.0979C86.1743 92.4483 85.9013 91.7706 86.1273 91.1634C86.485 90.2221 87.7605 90.0668 88.5371 89.4125C89.1395 88.8995 89.436 88.0711 90.0997 87.6428C90.7161 87.3165 91.4283 87.2197 92.1094 87.3698C92.7833 87.5251 93.4757 87.5853 94.1662 87.5487C94.6433 87.4466 95.1146 87.3193 95.5782 87.1675C96.0445 87.0208 96.549 87.0562 96.9902 87.2663C97.2058 87.384 97.3668 87.5813 97.4389 87.8161C97.511 88.0509 97.4885 88.3046 97.3762 88.523C98.1716 88.1559 99.1788 88.7771 99.3953 89.6196C99.4783 90.0509 99.439 90.4968 99.2818 90.9068C99.1246 91.3169 98.8558 91.6748 98.5058 91.94C97.8016 92.4646 96.9756 92.8015 96.1054 92.919C93.672 93.3897 91.0363 93.1214 88.9418 91.8035" fill="#263238"/>
<path d="M99.0329 101.302C98.9529 99.8002 98.534 96.722 98.1198 93.9404C97.9056 92.4994 97.1577 91.1915 96.0243 90.2761C94.891 89.3607 93.455 88.9046 92.0012 88.9984H91.6999C88.4806 89.4031 87.0262 92.3636 87.5204 95.5877L88.4617 107.143H96.3219C96.3219 107.143 96.1336 105.114 96.1336 105.095C96.1336 105.076 99.2023 104.408 99.0329 101.302Z" fill="#FFBE9D"/>
<path d="M96.1289 105.058C94.6962 105.178 93.2599 104.872 92.0011 104.177C92.0011 104.177 93.1119 106.347 96.19 105.862L96.1289 105.058Z" fill="#EB996E"/>
<path d="M97.1173 96.6043C97.1265 96.719 97.0902 96.8327 97.0162 96.9207C96.9422 97.0088 96.8365 97.0642 96.722 97.075C96.6669 97.0822 96.6109 97.0784 96.5573 97.0638C96.5037 97.0492 96.4536 97.0241 96.4098 96.99C96.366 96.9558 96.3294 96.9133 96.3022 96.8648C96.275 96.8164 96.2577 96.7631 96.2513 96.7079C96.2434 96.5935 96.2802 96.4805 96.3539 96.3927C96.4277 96.3049 96.5326 96.2491 96.6467 96.2372C96.7017 96.23 96.7577 96.2338 96.8113 96.2484C96.8649 96.263 96.9151 96.2881 96.9589 96.3222C97.0027 96.3564 97.0392 96.3989 97.0664 96.4474C97.0936 96.4958 97.111 96.5491 97.1173 96.6043Z" fill="#263238"/>
<path d="M97.555 95.503C97.5032 95.5642 97.1502 95.3383 96.6702 95.3712C96.1901 95.4041 95.8606 95.6677 95.8041 95.6112C95.7477 95.5548 95.8041 95.4795 95.9736 95.3571C96.1705 95.2013 96.4102 95.1094 96.6607 95.0935C96.9092 95.0756 97.1568 95.1383 97.3667 95.2724C97.5221 95.3759 97.5786 95.4747 97.555 95.503Z" fill="#263238"/>
<path d="M92.6083 96.9291C92.6097 97.0419 92.5706 97.1515 92.498 97.2379C92.4255 97.3243 92.3243 97.3817 92.2129 97.3998C92.1014 97.4118 91.9896 97.3795 91.9016 97.31C91.8136 97.2405 91.7564 97.1392 91.7422 97.0279C91.7408 96.9151 91.7799 96.8055 91.8525 96.7192C91.925 96.6328 92.0262 96.5753 92.1376 96.5573C92.2491 96.5453 92.3609 96.5775 92.4489 96.647C92.5369 96.7166 92.5941 96.8178 92.6083 96.9291Z" fill="#263238"/>
<path d="M92.8672 95.9077C92.8154 95.9689 92.4624 95.743 91.9823 95.7759C91.5022 95.8089 91.1728 96.0678 91.1163 96.016C91.0598 95.9642 91.1163 95.8842 91.2857 95.7618C91.4828 95.6025 91.7246 95.5084 91.9775 95.4924C92.2304 95.4764 92.4821 95.5393 92.6977 95.6724C92.8342 95.7759 92.8907 95.8795 92.8672 95.9077Z" fill="#263238"/>
<path d="M94.8345 99.3107C95.081 99.214 95.3388 99.1492 95.6017 99.1177C95.7241 99.1177 95.837 99.0659 95.8512 98.9812C95.8531 98.8558 95.817 98.7327 95.7476 98.6282L95.324 97.7245C94.9384 96.9667 94.6126 96.1798 94.3497 95.3712C94.7986 96.1025 95.1874 96.8691 95.5123 97.6633C95.6535 97.9787 95.79 98.2846 95.9218 98.5717C96.004 98.714 96.037 98.8794 96.0159 99.0424C96.0004 99.0863 95.9756 99.1263 95.9431 99.1597C95.9106 99.193 95.8712 99.2188 95.8276 99.2353C95.7604 99.2572 95.6909 99.2714 95.6205 99.2777C95.361 99.3222 95.0969 99.3332 94.8345 99.3107Z" fill="#263238"/>
<path d="M92.8625 94.0251C92.8248 94.1569 92.3447 94.1286 91.7894 94.2369C91.234 94.3451 90.7915 94.524 90.7068 94.411C90.6221 94.2981 90.7445 94.2322 90.9186 94.091C91.1504 93.9189 91.4199 93.8043 91.7046 93.7568C91.9878 93.7011 92.2803 93.7156 92.5565 93.7992C92.7683 93.8698 92.8813 93.9639 92.8625 94.0251Z" fill="#263238"/>
<path d="M97.2867 94.1333C97.2067 94.2463 96.8725 94.1569 96.4772 94.1757C96.0818 94.1945 95.7523 94.2981 95.6676 94.1757C95.5829 94.0533 95.6676 94.011 95.8135 93.898C95.9998 93.7582 96.2255 93.6808 96.4583 93.6768C96.6906 93.6665 96.9204 93.7273 97.1173 93.8509C97.2632 93.9686 97.3196 94.0769 97.2867 94.1333Z" fill="#263238"/>
<path d="M87.9205 97.8987C87.864 97.8987 85.7413 97.428 85.9531 99.5319C86.1649 101.636 88.4617 100.944 88.457 100.897C88.4523 100.85 87.9205 97.8987 87.9205 97.8987Z" fill="#FFBE9D"/>
<path d="M87.5156 100.181C87.5156 100.181 87.4827 100.21 87.4262 100.243C87.3415 100.289 87.2418 100.301 87.1485 100.276C87.003 100.203 86.8796 100.092 86.791 99.9558C86.7025 99.8192 86.652 99.6615 86.6449 99.4989C86.6204 99.3185 86.6381 99.1348 86.6967 98.9624C86.7089 98.8933 86.7381 98.8283 86.7816 98.7732C86.8251 98.7182 86.8817 98.6748 86.9461 98.647C86.9873 98.6329 87.032 98.6332 87.073 98.6477C87.114 98.6622 87.1489 98.6902 87.1721 98.727C87.2097 98.7835 87.2003 98.8306 87.2097 98.8306C87.2191 98.8306 87.2521 98.7929 87.2097 98.7035C87.1927 98.6535 87.1596 98.6104 87.1156 98.5811C87.0844 98.5614 87.0496 98.5483 87.0131 98.5426C86.9767 98.5369 86.9394 98.5388 86.9038 98.5482C86.8189 98.575 86.7421 98.6226 86.6805 98.6867C86.6188 98.7509 86.5742 98.8295 86.5508 98.9153C86.4802 99.1078 86.4576 99.3146 86.4849 99.5178C86.4901 99.7077 86.5527 99.8917 86.6644 100.045C86.7761 100.199 86.9318 100.315 87.1109 100.379C87.1697 100.39 87.2302 100.387 87.288 100.372C87.3458 100.356 87.3994 100.328 87.445 100.29C87.5439 100.252 87.5439 100.181 87.5156 100.181Z" fill="#EB996E"/>
<path d="M97.9645 91.0363C97.8186 91.8788 96.1054 92.6554 94.6699 92.6131C93.3614 92.5754 92.7119 91.9259 91.7658 91.4646C91.1634 91.1728 91.1634 91.1728 90.3538 91.3046C89.6949 91.4129 89.3513 92.1895 88.9842 92.7496C89.6902 94.2886 89.4031 96.0772 89.1019 97.7433C89.0903 97.9303 89.0156 98.1079 88.8901 98.2469C88.7544 98.3303 88.5938 98.3632 88.4363 98.34C88.2788 98.3168 88.1345 98.2388 88.0287 98.1199C87.6805 97.7452 87.4483 97.2776 87.3604 96.7738C87.0639 95.6488 86.9935 94.4761 87.1533 93.3238C87.3094 92.1709 87.8003 91.0892 88.5653 90.2127C89.5738 89.1496 90.9561 88.5201 92.4201 88.4571C93.8778 88.4033 95.3155 88.81 96.529 89.6196C97.1079 89.9679 97.5927 90.4527 97.941 91.0316" fill="#263238"/>
<path d="M95.1499 100.403L94.0674 99.899C94.0073 99.8648 93.9387 99.8484 93.8697 99.8519C93.7943 99.8688 93.7284 99.9144 93.6861 99.979C93.5592 100.13 93.4798 100.315 93.458 100.511C93.4362 100.707 93.473 100.905 93.5638 101.08C93.6625 101.252 93.8186 101.383 94.0045 101.451C94.1904 101.519 94.3943 101.52 94.5804 101.452C94.7623 101.352 94.9139 101.205 95.0191 101.026C95.1243 100.847 95.1792 100.643 95.1782 100.436L95.1499 100.403Z" fill="#EB996E"/>
<path d="M94.604 101.532C94.604 101.532 94.378 101.706 93.9686 101.589C93.7295 101.508 93.5296 101.34 93.4085 101.118C93.3315 100.985 93.2853 100.837 93.273 100.684C93.2608 100.53 93.283 100.377 93.3379 100.233C93.3954 100.083 93.4854 99.9484 93.6014 99.8378C93.6577 99.786 93.7192 99.7403 93.785 99.7013C93.8285 99.6782 93.877 99.6662 93.9262 99.6662C93.9754 99.6662 94.0239 99.6782 94.0674 99.7013C94.3169 99.8378 94.4816 99.9555 94.6463 100.059C94.9617 100.271 95.1499 100.417 95.117 100.445C95.084 100.473 94.8817 100.384 94.5428 100.21L93.9639 99.9084C93.9215 99.9084 93.9262 99.9084 93.8791 99.9084C93.8318 99.9402 93.7877 99.9764 93.7473 100.017C93.6587 100.104 93.5911 100.21 93.5497 100.327C93.5075 100.438 93.4891 100.557 93.4956 100.675C93.5021 100.793 93.5333 100.909 93.5873 101.014C93.679 101.192 93.8284 101.333 94.0109 101.415C94.3639 101.565 94.604 101.49 94.604 101.532Z" fill="#263238"/>
<path d="M94.2697 96.6561C94.2697 96.6561 94.2698 96.4631 94.1568 96.1289C94.0204 95.6625 93.7343 95.254 93.3425 94.9664C93.0289 94.7332 92.6566 94.5917 92.2672 94.5578C91.8778 94.5239 91.4867 94.5989 91.1375 94.7744C90.7882 94.9499 90.4947 95.219 90.2895 95.5517C90.0844 95.8844 89.9757 96.2676 89.9757 96.6584C89.9757 97.0493 90.0844 97.4325 90.2895 97.7652C90.4947 98.0978 90.7882 98.367 91.1375 98.5425C91.4867 98.718 91.8778 98.793 92.2672 98.7591C92.6566 98.7252 93.0289 98.5837 93.3425 98.3505C93.7343 98.0629 94.0204 97.6544 94.1568 97.1879C94.2509 96.8538 94.2462 96.6561 94.2697 96.6561C94.2933 96.6561 94.2697 96.7079 94.2697 96.802C94.2728 96.9397 94.2585 97.0773 94.2274 97.2115C94.1215 97.7174 93.8397 98.1693 93.432 98.487C93.1271 98.7249 92.7673 98.8824 92.3857 98.9449C92.0041 99.0074 91.6129 98.9729 91.2481 98.8447C90.7967 98.6841 90.406 98.3878 90.1298 97.9964C89.8535 97.6049 89.7052 97.1376 89.7052 96.6584C89.7052 96.1793 89.8535 95.712 90.1298 95.3205C90.406 94.9291 90.7967 94.6327 91.2481 94.4722C91.6129 94.344 92.0041 94.3095 92.3857 94.372C92.7673 94.4345 93.1271 94.592 93.432 94.8299C93.8397 95.1476 94.1215 95.5995 94.2274 96.1054C94.2587 96.2396 94.273 96.3772 94.2697 96.5149C94.2839 96.609 94.2792 96.6561 94.2697 96.6561Z" fill="#263238"/>
<path d="M99.5553 96.449C99.5318 96.449 99.5553 96.2607 99.4424 95.936C99.3105 95.4826 99.0326 95.0854 98.6517 94.8064C98.3464 94.5796 97.9841 94.4421 97.6052 94.4093C97.2263 94.3764 96.8458 94.4495 96.506 94.6204C96.1663 94.7912 95.8807 95.0531 95.6811 95.3769C95.4815 95.7006 95.3759 96.0734 95.3759 96.4537C95.3759 96.834 95.4815 97.2068 95.6811 97.5306C95.8807 97.8543 96.1663 98.1162 96.506 98.2871C96.8458 98.4579 97.2263 98.531 97.6052 98.4982C97.9841 98.4653 98.3464 98.3278 98.6517 98.101C99.0326 97.822 99.3105 97.4249 99.4424 96.9714C99.5365 96.6467 99.5318 96.4537 99.5553 96.4537C99.5789 96.4537 99.5553 96.5008 99.5553 96.5949C99.5579 96.7293 99.5453 96.8635 99.5177 96.995C99.4126 97.4875 99.1377 97.9273 98.7411 98.2375C98.4437 98.4702 98.0924 98.6241 97.7197 98.685C97.347 98.7459 96.965 98.7118 96.609 98.5858C96.1692 98.4288 95.7887 98.1397 95.5196 97.758C95.2506 97.3763 95.1062 96.9207 95.1062 96.4537C95.1062 95.9867 95.2506 95.5312 95.5196 95.1495C95.7887 94.7678 96.1692 94.4786 96.609 94.3216C96.965 94.1956 97.347 94.1615 97.7197 94.2224C98.0924 94.2833 98.4437 94.4372 98.7411 94.6699C99.138 94.9819 99.4129 95.4233 99.5177 95.9172C99.5457 96.0486 99.5583 96.1829 99.5553 96.3172C99.5695 96.4019 99.5647 96.449 99.5553 96.449Z" fill="#263238"/>
<path d="M95.244 95.9642C95.1969 96.0066 94.9851 95.8701 94.7027 95.8795C94.4203 95.8889 94.2321 96.0254 94.1662 95.983C94.1003 95.9407 94.2979 95.6442 94.698 95.6348C95.0981 95.6254 95.3052 95.9266 95.244 95.9642Z" fill="#263238"/>
<path d="M89.9773 96.3455C90.0196 96.3972 89.6055 96.7738 89.0595 97.1832C88.7508 97.4649 88.3892 97.6825 87.9958 97.8234C87.9534 97.7716 88.3676 97.395 88.9136 96.9856C89.2215 96.7029 89.5833 96.4852 89.9773 96.3455Z" fill="#263238"/>
<path d="M133.669 96.5526C133.669 96.6184 128.224 96.6749 121.507 96.6749C114.791 96.6749 109.345 96.6184 109.345 96.5526C109.345 96.4867 114.791 96.4302 121.507 96.4302C128.224 96.4302 133.669 96.4867 133.669 96.5526Z" fill="#263238"/>
<path d="M122.416 99.0989C122.416 99.1648 119.526 99.2212 115.958 99.2212C112.39 99.2212 109.5 99.1648 109.5 99.0989C109.5 99.033 112.39 98.9718 115.958 98.9718C119.526 98.9718 122.416 99.0283 122.416 99.0989Z" fill="#263238"/>
<path d="M206.524 115.356C208.655 116.567 210.524 118.19 212.023 120.129C213.523 122.068 214.623 124.285 215.259 126.652C217.533 134.785 224.485 155.965 224.485 155.965C224.485 155.965 228.457 160.639 228.881 164.098C229.304 167.557 228.457 175.93 227.177 177.493C226.806 177.946 226.33 178.302 225.79 178.53C225.25 178.757 224.663 178.849 224.08 178.797L207.357 177.211L200.768 133.119L206.524 115.356Z" fill="#191D88"/>
<path d="M151.23 114.589C151.23 114.589 139.27 118.354 136.291 121.601L146.081 167.143L145.907 181.517H202.613C202.613 180.807 203.121 133.801 203.121 133.801L206.524 115.356L186.384 111.812L182.412 108.686L159.994 109.825L156.586 113.228L151.23 114.589Z" fill="#191D88"/>
<g opacity="0.3">
<path opacity="0.3" d="M155.791 154.101C155.617 153.715 155.362 153.296 154.948 153.211C154.266 153.07 153.809 153.875 153.579 154.534C151.77 159.697 149.265 164.588 146.133 169.073L145.987 176.067C149.281 173.285 152.548 170.306 154.656 166.536C156.765 162.766 157.551 158.036 155.791 154.101Z" fill="black"/>
</g>
<path d="M136.291 121.601C136.291 121.601 132.352 126.972 130.718 130.478C129.085 133.985 115.525 163.425 114.716 166.47C113.906 169.515 111.797 179.089 117.987 181.31H130.728L143.511 155.456L144.165 125.452L136.291 121.601Z" fill="#191D88"/>
<path d="M131.533 162.634C131.533 162.634 131.25 162.385 130.662 162.051C129.822 161.6 128.922 161.274 127.988 161.081C127.347 160.94 126.695 160.849 126.04 160.808C125.285 160.751 124.525 160.805 123.785 160.968C122.111 161.398 120.612 162.339 119.498 163.66C118.364 164.967 117.535 166.508 117.069 168.174C116.685 169.535 116.429 170.93 116.306 172.339C116.184 173.544 116.142 174.528 116.099 175.201C116.099 175.521 116.062 175.78 116.052 175.982C116.053 176.075 116.04 176.166 116.015 176.255C116.009 176.164 116.009 176.073 116.015 175.982C116.015 175.775 116.015 175.512 116.015 175.201C116.015 174.518 116.043 173.539 116.142 172.325C116.241 170.893 116.482 169.474 116.862 168.089C117.324 166.386 118.166 164.809 119.323 163.477C120.473 162.119 122.021 161.157 123.748 160.728C124.503 160.571 125.277 160.528 126.045 160.601C126.709 160.65 127.369 160.752 128.017 160.907C128.96 161.117 129.865 161.472 130.699 161.961C130.924 162.1 131.137 162.257 131.335 162.432C131.408 162.492 131.474 162.56 131.533 162.634Z" fill="#263238"/>
<path d="M125.494 157.485C125.633 157.444 125.777 157.422 125.922 157.419C126.315 157.389 126.71 157.389 127.104 157.419C127.689 157.453 128.27 157.54 128.84 157.678C130.243 158.017 131.559 158.646 132.705 159.523C133.171 159.878 133.604 160.275 133.999 160.709C134.266 161.003 134.51 161.318 134.728 161.65C134.817 161.766 134.89 161.892 134.945 162.027C134.907 162.055 134.559 161.556 133.872 160.841C133.466 160.434 133.03 160.058 132.568 159.716C131.999 159.302 131.394 158.94 130.761 158.633C130.123 158.336 129.462 158.094 128.784 157.909C128.228 157.765 127.661 157.665 127.089 157.607C126.11 157.48 125.494 157.532 125.494 157.485Z" fill="#263238"/>
<path d="M137.006 156.068C136.809 156.076 136.612 156.062 136.418 156.026C136.042 155.979 135.5 155.922 134.823 155.871C131.303 155.608 127.765 156.032 124.407 157.118C123.762 157.325 123.244 157.509 122.891 157.645C122.711 157.725 122.523 157.786 122.331 157.829C122.493 157.716 122.669 157.624 122.853 157.556C123.197 157.391 123.71 157.184 124.35 156.953C127.711 155.763 131.295 155.335 134.841 155.701C135.514 155.772 136.06 155.852 136.432 155.932C136.628 155.959 136.82 156.005 137.006 156.068Z" fill="#263238"/>
<path d="M173.29 130.911C173.238 130.866 173.194 130.814 173.158 130.756L172.81 130.285L171.53 128.516C170.433 126.962 168.899 124.797 167.096 122.256L167.294 122.227C166.607 124.242 165.849 126.463 165.053 128.817L165.002 128.963L164.87 128.878L164.606 128.708C163.581 128.052 162.648 127.26 161.834 126.355C161.081 125.512 160.418 124.594 159.853 123.616C158.912 121.96 158.18 120.194 157.673 118.359C157.333 117.119 157.058 115.862 156.85 114.593C156.774 114.17 156.718 113.826 156.671 113.567C156.657 113.479 156.637 113.393 156.61 113.308C156.61 113.252 156.577 113.224 156.581 113.219C156.586 113.214 156.774 113.69 156.944 114.579C157.113 115.469 157.382 116.749 157.843 118.297C158.364 120.116 159.105 121.864 160.05 123.503C160.614 124.463 161.271 125.365 162.013 126.195C162.813 127.079 163.728 127.851 164.733 128.492L164.992 128.661L164.813 128.727C165.618 126.374 166.381 124.167 167.077 122.138L167.148 121.931L167.275 122.11C169.045 124.675 170.57 126.859 171.638 128.421C172.151 129.184 172.579 129.791 172.866 130.233L173.182 130.704C173.225 130.769 173.261 130.839 173.29 130.911Z" fill="#263238"/>
<g opacity="0.3">
<path opacity="0.3" d="M188.045 152.651C187.538 157.962 188.689 163.3 191.34 167.929C193.976 172.513 197.845 176.604 202.66 178.797C202.815 174.123 202.589 168.616 202.744 163.943L188.045 152.651Z" fill="black"/>
</g>
<path d="M187.514 146.5C187.514 146.5 185.452 147.069 186.996 151.291C188.54 155.513 189.057 155.254 190.088 159.198C191.119 163.142 192.319 166.729 194.117 168.979C195.915 171.228 202.613 175.756 202.613 175.756L208.618 170.108C208.618 170.108 207.63 165.872 207.865 163.02C208.101 160.168 208.703 153.136 208.618 151.917C208.534 150.698 207.244 147.799 207.244 147.799V145.803L204.156 136.305C204.156 136.305 202.438 135.533 201.841 138.277L200.81 135.364C200.81 135.364 199.181 135.105 198.753 138.451C198.325 141.798 199.097 146.429 199.097 146.429L198.235 152.261L196.951 156.21L195.835 156.379C195.835 156.379 194.155 155.908 193.237 152.76C192.319 149.611 189.829 145.813 187.514 146.5Z" fill="#FFBE9D"/>
<path d="M206.623 161.439C206.623 161.439 206.623 161.368 206.594 161.227C206.566 161.086 206.566 160.855 206.552 160.596C206.519 160.022 206.477 159.227 206.425 158.243C206.331 156.195 206.204 153.343 206.053 150.016L206.077 150.086C205.923 149.927 205.729 149.813 205.514 149.756C205.3 149.7 205.075 149.703 204.862 149.766C204.632 149.822 204.415 149.923 204.225 150.064C204.034 150.204 203.873 150.382 203.752 150.585C203.225 151.428 203.196 152.529 203.032 153.588C202.707 155.993 202.396 158.295 202.114 160.37C201.973 161.415 201.822 162.404 201.62 163.321C201.429 164.172 201.179 165.009 200.871 165.825C200.608 166.574 200.372 167.237 200.226 167.863C200.096 168.379 200.031 168.908 200.033 169.44C200.05 169.897 200.129 170.35 200.269 170.786C200.212 170.681 200.165 170.57 200.128 170.457C200.016 170.13 199.952 169.789 199.939 169.445C199.917 168.899 199.969 168.353 200.095 167.821C200.26 167.122 200.465 166.434 200.711 165.759C201.002 164.946 201.238 164.114 201.417 163.27C201.61 162.361 201.756 161.387 201.888 160.333C202.161 158.243 202.467 155.955 202.787 153.546C202.862 153.014 202.919 152.482 203.013 151.955C203.09 151.422 203.269 150.909 203.54 150.444C203.68 150.215 203.864 150.017 204.081 149.86C204.299 149.704 204.545 149.592 204.806 149.531C205.06 149.455 205.33 149.451 205.585 149.521C205.841 149.591 206.071 149.731 206.251 149.926L206.274 149.959V149.997C206.392 153.324 206.491 156.177 206.562 158.229C206.562 159.222 206.604 160.017 206.623 160.582C206.623 160.841 206.623 161.053 206.623 161.213C206.631 161.288 206.631 161.364 206.623 161.439Z" fill="#EB996E"/>
<path d="M203.328 150.613C203.221 150.446 203.136 150.266 203.074 150.077C202.877 149.575 202.709 149.063 202.57 148.542C202.368 147.77 202.225 146.983 202.142 146.189C202.084 145.721 202.074 145.247 202.114 144.777C202.157 144.251 202.336 143.746 202.631 143.309C202.895 142.917 203.283 142.625 203.733 142.48L203.822 142.457L203.869 142.537C204.74 144.071 205.498 145.427 206.025 146.401L206.642 147.554C206.726 147.689 206.792 147.835 206.839 147.987C206.734 147.867 206.642 147.736 206.566 147.596L205.888 146.481C205.324 145.54 204.538 144.189 203.662 142.659L203.799 142.716C203.405 142.847 203.066 143.105 202.834 143.45C202.563 143.854 202.401 144.32 202.363 144.805C202.316 145.265 202.316 145.729 202.363 146.189C202.434 146.981 202.558 147.767 202.735 148.542C202.886 149.201 203.05 149.728 203.159 150.091C203.232 150.259 203.289 150.434 203.328 150.613Z" fill="#EB996E"/>
<path d="M201.888 151.385C201.846 151.205 201.827 151.02 201.831 150.835C201.831 150.43 201.794 149.931 201.77 149.343C201.732 148.081 201.69 146.34 201.667 144.415C201.596 142.769 201.621 141.12 201.742 139.477C201.801 138.979 201.908 138.487 202.062 138.009C202.108 137.829 202.182 137.657 202.283 137.501C202.11 138.156 201.986 138.823 201.911 139.496C201.794 140.743 201.911 142.485 201.911 144.41C201.911 146.335 201.949 148.076 201.944 149.338C201.944 149.931 201.944 150.43 201.944 150.835C201.946 151.02 201.927 151.204 201.888 151.385Z" fill="#EB996E"/>
<path d="M196.809 167.204C196.776 167.176 197.153 166.734 197.614 165.929C197.885 165.459 198.119 164.97 198.315 164.465C198.546 163.844 198.726 163.205 198.852 162.554C198.962 161.901 199.017 161.24 199.017 160.577C199.009 160.036 198.962 159.497 198.875 158.963C198.72 158.045 198.522 157.499 198.565 157.485C198.639 157.6 198.696 157.725 198.734 157.857C198.867 158.205 198.971 158.564 199.045 158.93C199.16 159.47 199.226 160.02 199.243 160.573C199.284 161.934 199.039 163.289 198.522 164.55C198.314 165.061 198.061 165.552 197.765 166.018C197.568 166.334 197.347 166.633 197.101 166.913C196.927 167.11 196.823 167.214 196.809 167.204Z" fill="#EB996E"/>
<path d="M207.352 164.263L212.563 166.07C212.563 166.07 217.542 163.495 220.973 166.07C224.405 168.645 227.384 175.427 226.443 178.171C226.443 178.171 224.089 181.098 222.272 181.527C220.456 181.955 213.466 180.256 210.553 179.644C207.639 179.032 202.613 175.766 202.613 175.766L207.352 164.263Z" fill="#FFBE9D"/>
<path d="M207.992 171.93C207.956 171.776 207.937 171.618 207.936 171.459C207.936 171.106 207.893 170.687 207.865 170.198C207.809 169.134 207.738 167.666 207.715 166.037C207.691 164.409 207.738 162.935 207.832 161.872C207.879 161.34 207.941 160.93 207.992 160.615C208.004 160.453 208.04 160.295 208.101 160.144C208.138 160.144 208.058 160.803 208.006 161.867C207.955 162.931 207.936 164.394 207.959 166.018C207.983 167.642 208.016 169.045 208.035 170.174C208.035 170.706 208.035 171.139 208.035 171.436C208.047 171.602 208.033 171.768 207.992 171.93Z" fill="#EB996E"/>
<path d="M225.176 165.854C224.636 165.293 224.058 164.771 223.444 164.291C221.937 163.163 220.13 162.507 218.251 162.404C216.372 162.301 214.504 162.756 212.883 163.712C212.225 164.122 211.596 164.576 211 165.072C211.124 164.899 211.268 164.742 211.428 164.602C211.852 164.208 212.314 163.858 212.807 163.557C214.444 162.537 216.356 162.047 218.281 162.154C220.207 162.261 222.053 162.96 223.567 164.154C224.024 164.506 224.444 164.906 224.819 165.345C224.957 165.5 225.077 165.671 225.176 165.854Z" fill="#263238"/>
<path d="M224.508 161.509C223.835 161.026 223.107 160.624 222.338 160.314C220.45 159.643 218.399 159.582 216.474 160.14C215.415 160.437 214.396 160.86 213.438 161.401C212.658 161.849 211.923 162.369 211.24 162.954C210.656 163.453 210.209 163.896 209.903 164.192C209.753 164.364 209.588 164.521 209.409 164.663C209.532 164.473 209.673 164.296 209.833 164.136C210.239 163.677 210.671 163.242 211.127 162.832C211.803 162.221 212.54 161.68 213.325 161.217C214.292 160.652 215.329 160.214 216.408 159.914C218.38 159.338 220.487 159.425 222.404 160.163C222.977 160.392 223.517 160.696 224.009 161.067C224.183 161.194 224.301 161.316 224.39 161.392C224.48 161.467 224.508 161.505 224.508 161.509Z" fill="#263238"/>
<path d="M224.55 157.744C224.55 157.791 223.609 157.513 222.112 157.311C221.228 157.192 220.336 157.136 219.444 157.142C218.35 157.154 217.26 157.251 216.182 157.433C215.106 157.631 214.047 157.911 213.014 158.271C212.172 158.57 211.353 158.929 210.562 159.344C209.211 160.05 208.449 160.624 208.421 160.582C208.581 160.427 208.756 160.288 208.943 160.168C209.148 160.007 209.364 159.859 209.588 159.725C209.847 159.561 210.139 159.368 210.477 159.189C211.269 158.751 212.091 158.374 212.939 158.059C213.979 157.68 215.05 157.39 216.14 157.193C217.228 157.009 218.33 156.916 219.434 156.916C220.338 156.92 221.239 156.994 222.131 157.137C222.512 157.184 222.851 157.273 223.148 157.334C223.405 157.387 223.66 157.453 223.91 157.532C224.129 157.584 224.344 157.655 224.55 157.744Z" fill="#263238"/>
<path d="M184.624 111.656C184.819 112.094 184.94 112.562 184.981 113.04C185.122 114.39 185.055 115.753 184.784 117.083C184.619 118.038 184.394 118.981 184.111 119.907C183.74 120.985 183.283 122.032 182.746 123.037C181.621 125.202 180.209 127.56 178.571 130.097L178.383 130.393V130.04C178.383 128.374 178.383 126.628 178.383 124.816L178.566 124.906L174.147 128.431L174.184 128.374C173.136 131.81 172.491 135.356 172.264 138.941C171.831 144.669 172.179 150.147 172.448 155.118C172.716 160.088 172.833 164.573 172.989 168.339C173.144 172.104 173.271 175.144 173.384 177.248C173.45 178.293 173.497 179.103 173.53 179.668C173.53 179.936 173.563 180.138 173.572 180.298C173.582 180.458 173.572 180.515 173.572 180.515C173.572 180.515 173.572 180.444 173.539 180.303C173.507 180.162 173.502 179.941 173.474 179.672C173.422 179.122 173.356 178.307 173.285 177.253C173.144 175.154 172.979 172.109 172.815 168.343C172.65 164.578 172.448 160.102 172.222 155.127C171.996 150.152 171.586 144.669 172.019 138.922C172.257 135.316 172.919 131.75 173.991 128.299V128.266H174.02L178.425 124.731L178.609 124.581V124.816C178.609 126.628 178.609 128.374 178.609 130.04L178.416 129.979C181.649 124.967 184.28 120.608 184.685 117.083C184.964 115.766 185.05 114.415 184.939 113.073C184.901 112.72 184.836 112.371 184.746 112.028C184.652 111.774 184.624 111.656 184.624 111.656Z" fill="#263238"/>
<path d="M176.18 172.368H176.029C175.687 172.39 175.366 172.544 175.135 172.798C174.904 173.052 174.781 173.387 174.792 173.73C174.803 174.073 174.947 174.399 175.194 174.637C175.441 174.876 175.771 175.01 176.114 175.01C176.458 175.01 176.787 174.876 177.034 174.637C177.281 174.399 177.425 174.073 177.436 173.73C177.447 173.387 177.324 173.052 177.093 172.798C176.862 172.544 176.542 172.39 176.199 172.368H176.18Z" fill="white"/>
<path d="M176.18 154.228H176.029C175.688 154.25 175.368 154.404 175.138 154.657C174.908 154.911 174.786 155.244 174.797 155.586C174.808 155.928 174.952 156.252 175.197 156.49C175.443 156.728 175.772 156.861 176.114 156.861C176.456 156.861 176.785 156.728 177.031 156.49C177.277 156.252 177.42 155.928 177.431 155.586C177.442 155.244 177.32 154.911 177.09 154.657C176.86 154.404 176.54 154.25 176.199 154.228H176.18Z" fill="white"/>
<path d="M176.029 137.999C176.381 138.023 176.727 137.905 176.992 137.673C177.256 137.441 177.418 137.113 177.441 136.762C177.464 136.41 177.347 136.064 177.115 135.799C176.883 135.534 176.555 135.373 176.203 135.35H176.029C175.677 135.35 175.34 135.489 175.091 135.738C174.842 135.987 174.702 136.325 174.702 136.677C174.702 137.029 174.842 137.367 175.091 137.615C175.34 137.864 175.677 138.004 176.029 138.004V137.999Z" fill="white"/>
<path d="M155.682 90.4009C154.035 88.5701 152.388 86.725 151.169 84.5788C149.95 82.4326 149.248 79.9239 149.644 77.5188C149.879 76.1068 150.482 74.7419 150.585 73.2828C150.717 71.306 149.889 69.2398 150.585 67.39C151.677 64.4907 155.579 64.0436 157.942 62.0433C159.782 60.4854 160.676 57.9579 162.7 56.6494C164.47 55.501 166.743 55.5293 168.819 55.8211C170.894 56.1129 173.003 56.6447 175.093 56.3623C176.58 56.1647 177.983 55.5622 179.437 55.1998C180.891 54.8374 182.525 54.7291 183.819 55.501C185.113 56.2729 185.847 58.0944 184.996 59.3322C187.415 58.2168 190.488 60.1041 191.152 62.6834C191.816 65.2626 190.488 68.0537 188.436 69.7434C186.384 71.4331 183.729 72.2379 181.117 72.7321C173.709 74.1441 165.665 73.3393 159.278 69.3292" fill="#263238"/>
<path d="M181.743 115.313C181.381 112.489 181.084 110.169 181.065 109.877C181.065 109.877 190.441 107.769 189.923 98.2893C189.674 93.705 188.394 84.3105 187.132 75.8244C186.484 71.4252 184.202 67.4319 180.741 64.6405C177.279 61.849 172.893 60.4646 168.456 60.7631L167.515 60.8196C157.702 62.0574 153.263 71.0848 154.769 80.8652L160.069 113.657C160.069 113.657 162.328 120.91 167.162 122.166L173.281 130.883L174.288 127.118L178.835 123.155C179.706 122.13 180.459 121.011 181.08 119.818C181.774 118.425 182.006 116.847 181.743 115.313Z" fill="#FFBE9D"/>
<path d="M181.07 109.745C181.07 109.745 175.116 110.63 168.485 107.058C168.485 107.058 171.864 113.68 181.258 112.198L181.07 109.745Z" fill="#EB996E"/>
<path d="M184.087 83.9763C184.114 84.3291 184.002 84.6782 183.775 84.9497C183.548 85.2212 183.225 85.3937 182.873 85.4307C182.702 85.4558 182.527 85.4463 182.36 85.4027C182.192 85.3592 182.035 85.2825 181.898 85.1772C181.76 85.0719 181.645 84.9401 181.56 84.7896C181.474 84.6391 181.42 84.473 181.4 84.3011C181.368 83.9456 181.479 83.592 181.707 83.3178C181.936 83.0435 182.263 82.8708 182.619 82.8373C182.79 82.8129 182.965 82.8233 183.133 82.8677C183.3 82.9122 183.457 82.9898 183.594 83.0961C183.731 83.2023 183.845 83.3349 183.93 83.4862C184.015 83.6374 184.068 83.8041 184.087 83.9763Z" fill="#263238"/>
<path d="M185.41 80.6158C185.254 80.804 184.177 80.1122 182.722 80.2157C181.268 80.3192 180.265 81.1147 180.077 80.9546C179.997 80.884 180.148 80.5546 180.59 80.1828C181.19 79.7035 181.923 79.4222 182.689 79.3779C183.447 79.3229 184.203 79.5126 184.845 79.9192C185.316 80.2204 185.485 80.531 185.41 80.6158Z" fill="#263238"/>
<path d="M170.334 84.96C170.362 85.3125 170.25 85.6617 170.023 85.9328C169.796 86.2038 169.472 86.375 169.12 86.4097C168.949 86.4355 168.775 86.4266 168.607 86.3836C168.44 86.3406 168.282 86.2644 168.145 86.1595C168.008 86.0545 167.893 85.923 167.807 85.7727C167.721 85.6225 167.667 85.4565 167.647 85.2848C167.62 84.9328 167.732 84.5843 167.957 84.3129C168.183 84.0415 168.505 83.8685 168.856 83.8304C169.028 83.8053 169.203 83.8148 169.371 83.8583C169.538 83.9018 169.696 83.9784 169.833 84.0837C169.971 84.1889 170.086 84.3207 170.172 84.4712C170.258 84.6217 170.313 84.7879 170.334 84.96Z" fill="#263238"/>
<path d="M171.12 81.8442C170.96 82.0325 169.887 81.3406 168.433 81.4441C166.978 81.5477 165.957 82.3431 165.788 82.1737C165.703 82.1031 165.854 81.7736 166.296 81.4018C166.898 80.9232 167.632 80.6422 168.4 80.5969C169.156 80.5426 169.91 80.7323 170.551 81.1382C171.022 81.4488 171.196 81.7595 171.12 81.8442Z" fill="#263238"/>
<path d="M177.121 92.2883C177.121 92.2036 178.006 91.9871 179.475 91.7C179.842 91.6388 180.19 91.54 180.237 91.2858C180.242 90.8988 180.128 90.5196 179.912 90.1986L178.623 87.4405C176.83 83.5151 175.502 80.2722 175.662 80.2016C175.822 80.131 177.404 83.2562 179.202 87.1863L180.444 89.9633C180.708 90.3959 180.811 90.9072 180.736 91.4082C180.69 91.5424 180.615 91.6647 180.516 91.7657C180.416 91.8668 180.295 91.9441 180.162 91.9918C179.96 92.062 179.749 92.1063 179.536 92.1236C178.049 92.3025 177.135 92.3684 177.121 92.2883Z" fill="#263238"/>
<path d="M171.111 76.1115C170.993 76.521 169.529 76.4269 167.816 76.7469C166.103 77.067 164.771 77.6271 164.522 77.2882C164.409 77.1235 164.625 76.7375 165.157 76.3139C165.869 75.7969 166.69 75.4479 167.556 75.293C168.422 75.1382 169.313 75.1814 170.16 75.4196C170.824 75.6314 171.163 75.9233 171.111 76.1115Z" fill="#263238"/>
<path d="M184.591 76.4363C184.36 76.7846 183.334 76.5116 182.124 76.5728C180.915 76.634 179.912 76.9446 179.653 76.6151C179.541 76.4551 179.682 76.1115 180.124 75.7679C180.699 75.3543 181.384 75.1202 182.091 75.0951C182.799 75.07 183.498 75.2549 184.101 75.6267C184.534 75.9374 184.694 76.248 184.591 76.4363Z" fill="#263238"/>
<path d="M156.035 87.8546C155.871 87.7982 149.399 86.3673 150.039 92.8296C150.679 99.2918 157.673 97.1833 157.673 96.9997C157.673 96.8161 156.035 87.8546 156.035 87.8546Z" fill="#FFBE9D"/>
<path d="M154.812 94.877C154.779 94.877 154.708 94.9664 154.525 95.07C154.27 95.2124 153.969 95.2496 153.687 95.1735C152.976 94.99 152.275 93.9639 152.148 92.8202C152.077 92.2679 152.13 91.7069 152.303 91.1776C152.345 90.971 152.437 90.7776 152.569 90.6137C152.702 90.4499 152.872 90.3204 153.066 90.2362C153.192 90.1895 153.331 90.1885 153.458 90.2331C153.585 90.2778 153.693 90.3655 153.762 90.481C153.866 90.6551 153.837 90.7869 153.87 90.7916C153.903 90.7963 153.997 90.6739 153.922 90.4104C153.869 90.2535 153.765 90.1191 153.626 90.0291C153.53 89.9648 153.422 89.9201 153.309 89.8975C153.196 89.8749 153.08 89.8748 152.967 89.8973C152.707 89.977 152.472 90.1217 152.284 90.3178C152.096 90.5139 151.962 90.7548 151.894 91.0175C151.673 91.6043 151.6 92.2363 151.682 92.8578C151.851 94.1569 152.623 95.31 153.597 95.4841C153.776 95.5182 153.961 95.5113 154.137 95.464C154.313 95.4168 154.476 95.3303 154.614 95.2112C154.816 95.0323 154.849 94.8864 154.812 94.877Z" fill="#EB996E"/>
<path d="M186.657 66.9994C186.215 69.5739 181.009 71.932 176.669 71.8049C172.683 71.6872 170.711 69.7104 167.816 68.3031C165.981 67.4136 165.981 67.4136 163.491 67.8325C161.481 68.1572 160.436 70.5341 159.307 72.2285C161.457 76.9352 160.587 82.3761 159.674 87.4593C159.634 88.0325 159.404 88.5761 159.019 89.0031C158.295 89.6432 157.137 89.2619 156.403 88.6077C155.259 87.5581 154.736 86.0049 154.365 84.4988C153.453 81.0732 153.235 77.4998 153.724 73.9888C154.219 70.4607 155.738 67.1551 158.092 64.4813C161.171 61.2367 165.39 59.3147 169.859 59.1204C174.305 58.9611 178.689 60.206 182.388 62.6787C184.101 63.8036 185.683 65.192 186.671 66.9947" fill="#263238"/>
<path d="M178.077 95.5453L174.782 94.0109C174.602 93.9041 174.394 93.8518 174.184 93.8603C173.953 93.9125 173.749 94.0504 173.615 94.2463C173.229 94.7085 172.988 95.2746 172.922 95.8734C172.857 96.4722 172.97 97.0769 173.248 97.6115C173.549 98.1323 174.023 98.5313 174.588 98.7393C175.153 98.9473 175.773 98.9513 176.34 98.7506C177.507 98.2799 178.072 96.9102 178.166 95.6489L178.077 95.5453Z" fill="#EB996E"/>
<path d="M176.444 98.9953C176.444 99.0236 176.288 99.1177 175.973 99.1883C175.501 99.273 175.015 99.2374 174.561 99.0847C173.866 98.8507 173.283 98.3656 172.928 97.7245C172.702 97.3339 172.567 96.8979 172.532 96.4484C172.497 95.9989 172.563 95.5472 172.725 95.1264C172.891 94.6903 173.151 94.2965 173.488 93.9733C173.651 93.8189 173.831 93.6831 174.024 93.5685C174.14 93.4995 174.271 93.4592 174.406 93.4509C174.536 93.4456 174.667 93.4697 174.787 93.5215C174.963 93.6101 175.134 93.7075 175.3 93.8133L175.747 94.091L176.552 94.5899C177.526 95.2112 178.114 95.6253 178.081 95.6818C178.049 95.7383 177.399 95.4371 176.378 94.8911L175.545 94.4204L175.074 94.1616C174.914 94.0816 174.744 93.9733 174.603 93.9168C174.545 93.889 174.481 93.8778 174.417 93.8845C174.353 93.8911 174.292 93.9154 174.241 93.9545C174.084 94.0531 173.939 94.1683 173.808 94.2981C173.528 94.5762 173.31 94.9096 173.168 95.2771C173.031 95.6335 172.973 96.0152 172.997 96.3962C173.022 96.7771 173.128 97.1483 173.309 97.4845C173.602 98.0478 174.083 98.4907 174.669 98.7365C175.074 98.8996 175.508 98.9812 175.945 98.9765C176.255 98.9906 176.429 98.9624 176.444 98.9953Z" fill="#263238"/>
<path d="M175.403 84.1411C175.357 83.5896 175.27 83.0422 175.144 82.5031C174.911 81.6019 174.492 80.7594 173.914 80.0298C173.336 79.3001 172.612 78.6995 171.788 78.2664C170.964 77.8333 170.058 77.5775 169.13 77.5152C168.201 77.4529 167.269 77.5856 166.395 77.9047C165.792 78.121 165.226 78.4273 164.714 78.8131C164.17 79.2033 163.693 79.6803 163.302 80.2251C162.464 81.3593 162.011 82.7327 162.011 84.1434C162.011 85.5541 162.464 86.9276 163.302 88.0617C163.693 88.6065 164.17 89.0836 164.714 89.4737C165.226 89.8596 165.792 90.1659 166.395 90.3821C167.269 90.6983 168.2 90.8287 169.128 90.765C170.056 90.7014 170.96 90.445 171.784 90.0124C172.607 89.5797 173.331 88.9802 173.91 88.2521C174.488 87.5241 174.909 86.6834 175.144 85.7837C175.269 85.2461 175.356 84.7003 175.403 84.1505C175.409 84.1864 175.409 84.2229 175.403 84.2587C175.403 84.3435 175.403 84.4517 175.403 84.5788C175.407 84.7537 175.395 84.9287 175.366 85.1012C175.339 85.3392 175.297 85.5751 175.239 85.8072C175.09 86.448 174.844 87.0622 174.509 87.6287C173.705 89.0027 172.445 90.0517 170.948 90.5934C169.451 91.1351 167.812 91.1353 166.315 90.5939C165.691 90.3709 165.105 90.0534 164.578 89.6526C164.016 89.25 163.523 88.7588 163.119 88.1982C162.25 87.0233 161.78 85.6003 161.78 84.1387C161.78 82.6771 162.25 81.2541 163.119 80.0792C163.52 79.5177 164.012 79.0263 164.573 78.6249C165.101 78.2241 165.686 77.9066 166.31 77.6835C167.463 77.2694 168.707 77.1718 169.911 77.4011C170.864 77.5834 171.767 77.9675 172.559 78.5277C173.351 79.0878 174.015 79.811 174.504 80.6487C174.839 81.2152 175.085 81.8295 175.234 82.4702C175.292 82.7024 175.335 82.9383 175.361 83.1762C175.39 83.3488 175.403 83.5237 175.399 83.6986C175.399 83.8257 175.399 83.934 175.399 84.0187C175.406 84.059 175.408 84.1003 175.403 84.1411Z" fill="#263238"/>
<path d="M191.519 83.5057C191.473 82.9687 191.39 82.4356 191.27 81.9101C190.892 80.4866 190.047 79.2315 188.869 78.3472C188.067 77.737 187.131 77.3257 186.139 77.147C185.001 76.9381 183.828 77.0372 182.741 77.4341C182.156 77.6456 181.606 77.9422 181.108 78.3142C180.584 78.698 180.123 79.1618 179.743 79.6886C178.929 80.795 178.491 82.1324 178.491 83.5057C178.491 84.879 178.929 86.2164 179.743 87.3228C180.122 87.8492 180.583 88.3116 181.108 88.6924C181.605 89.0677 182.155 89.366 182.741 89.5773C183.828 89.972 185.001 90.071 186.139 89.8644C187.131 89.6857 188.067 89.2744 188.869 88.6642C190.047 87.7798 190.892 86.5248 191.27 85.1012C191.39 84.5758 191.473 84.0427 191.519 83.5057C191.53 83.6451 191.53 83.7852 191.519 83.9246C191.521 84.0963 191.508 84.2679 191.481 84.4376C191.456 84.6692 191.415 84.8988 191.359 85.1248C191.059 86.3575 190.412 87.4782 189.494 88.3542C188.577 89.2302 187.427 89.8245 186.182 90.0668C185.007 90.2884 183.795 90.1926 182.67 89.7891C181.427 89.3359 180.343 88.5274 179.555 87.464C178.708 86.318 178.251 84.9306 178.251 83.5057C178.251 82.0807 178.708 80.6933 179.555 79.5474C180.343 78.4839 181.427 77.6754 182.67 77.2223C183.795 76.8188 185.007 76.7229 186.182 76.9446C187.427 77.1869 188.577 77.7812 189.494 78.6572C190.412 79.5331 191.059 80.6539 191.359 81.8866C191.415 82.1126 191.456 82.3422 191.481 82.5738C191.508 82.7434 191.521 82.915 191.519 83.0868C191.53 83.2262 191.53 83.3663 191.519 83.5057Z" fill="#263238"/>
<path d="M178.383 82.0184C178.354 82.0419 178.199 81.9148 177.912 81.7783C177.542 81.6021 177.136 81.5135 176.726 81.5195C176.317 81.5253 175.915 81.6286 175.554 81.8207C175.272 81.9666 175.121 82.1031 175.083 82.0749C175.046 82.0466 175.168 81.8678 175.45 81.6701C175.822 81.4167 176.26 81.2777 176.71 81.2702C177.16 81.2627 177.602 81.387 177.983 81.6277C178.27 81.816 178.383 81.9995 178.383 82.0184Z" fill="#263238"/>
<path d="M162.309 83.1809C161.378 84.0269 160.394 84.8129 159.363 85.5342C158.377 86.3184 157.343 87.04 156.266 87.6946C157.196 86.8455 158.182 86.0593 159.217 85.3413C160.2 84.5554 161.233 83.8338 162.309 83.1809Z" fill="#263238"/>
<g opacity="0.3">
<path opacity="0.3" d="M156.732 113.812C156.078 120.199 158.506 126.943 163.632 130.812C164.032 131.118 164.536 131.42 165.011 131.245C165.328 131.092 165.581 130.832 165.726 130.511C167.162 128.031 167.7 125.133 167.251 122.303C166.442 124.44 165.745 126.539 164.926 128.77C160.469 126.059 157.673 120.298 156.732 113.812Z" fill="black"/>
</g>
<path opacity="0.3" d="M174.085 128.337L177.851 126.962L178.472 133.321C178.472 133.321 182.529 125.927 184.21 122.557C185.89 119.187 185.024 113.228 185.024 113.228C185.024 113.228 185.622 118.406 181.56 125.028L178.491 130.017V124.793L174.085 128.337Z" fill="black"/>
<g opacity="0.3">
<path opacity="0.3" d="M130.375 160.653C128.658 159.924 126.772 159.687 124.929 159.97C122.965 160.131 121.085 160.842 119.507 162.022C117.982 163.251 116.951 165.19 117.154 167.138L117.342 167.162C118.655 163.613 121.263 161.043 124.628 160.719C127.993 160.394 131.274 161.9 133.571 164.371C133.321 162.526 132.031 161.439 130.375 160.653Z" fill="black"/>
</g>
<g opacity="0.3">
<path opacity="0.3" d="M225.421 164.263C224.117 162.924 222.412 162.046 220.564 161.763C218.954 161.494 217.305 161.59 215.738 162.044C214.17 162.497 212.725 163.298 211.508 164.385L212.224 163.801C214.044 162.705 216.133 162.138 218.258 162.164C220.39 162.2 222.434 163.017 224.004 164.46C225.416 165.797 226.259 167.609 227.064 169.374C227.194 168.453 227.114 167.515 226.829 166.63C226.545 165.744 226.063 164.935 225.421 164.263Z" fill="black"/>
</g>
<path d="M201.187 134.752C201.225 134.575 201.282 134.403 201.356 134.239C201.502 133.867 201.681 133.41 201.888 132.869C202.358 131.716 202.97 130.125 203.629 128.351C204.288 126.576 204.858 124.962 205.267 123.795L205.738 122.406C205.788 122.233 205.858 122.066 205.945 121.907C205.93 122.088 205.891 122.265 205.827 122.435C205.738 122.773 205.597 123.253 205.413 123.847C205.046 125.033 204.5 126.671 203.841 128.436C203.182 130.201 202.528 131.801 202.029 132.935C201.784 133.505 201.558 133.961 201.422 134.276C201.363 134.444 201.284 134.604 201.187 134.752Z" fill="#263238"/>
<path d="M141.85 135.213C141.784 135.213 141.271 132.987 140.706 130.21C140.141 127.433 139.736 125.197 139.788 125.16C139.84 125.122 140.362 127.386 140.927 130.163C141.492 132.94 141.915 135.199 141.85 135.213Z" fill="#263238"/>
<path d="M140.96 163.213C141.111 163.288 139.237 148.547 139.237 148.547C139.237 148.547 140.419 137.359 141.082 136.842V132.893C141.082 132.893 142.913 131.787 143.403 133.575C143.403 133.575 145.027 132.163 145.285 135.519C145.544 138.875 145.629 142.301 145.629 142.301L149.239 151.329L149.832 151.63C149.832 151.63 150.609 144.57 151.06 143.516C151.512 142.461 151.823 139.943 153.531 140.325C155.24 140.706 155.386 142.118 155.08 144.424C154.774 146.73 154.388 149.131 154.534 150.609C154.68 152.087 155.353 155.376 155.146 157.984C154.939 160.591 153.508 163.34 152.011 165.27C150.514 167.2 147.648 171.196 146.095 172.396C145.591 172.819 140.96 163.213 140.96 163.213Z" fill="#FFBE9D"/>
<path d="M142.786 151.216C142.763 151.006 142.763 150.795 142.786 150.585C142.814 150.114 142.857 149.559 142.904 148.872C143.012 147.427 143.181 145.431 143.374 143.224C143.478 142.127 143.577 141.082 143.666 140.122C143.72 139.68 143.72 139.233 143.666 138.79C143.616 138.411 143.452 138.057 143.196 137.774C143.007 137.571 142.78 137.409 142.526 137.298C142.273 137.187 141.999 137.129 141.722 137.129C141.515 137.138 141.309 137.164 141.106 137.204C141.152 137.172 141.203 137.146 141.256 137.129C141.407 137.072 141.566 137.039 141.727 137.03C142.024 137.013 142.321 137.06 142.598 137.168C142.875 137.276 143.125 137.442 143.332 137.656C143.617 137.961 143.799 138.348 143.855 138.762C143.914 139.22 143.914 139.683 143.855 140.141C143.77 141.082 143.676 142.151 143.582 143.247C143.379 145.45 143.181 147.441 143.026 148.895L142.833 150.604C142.835 150.809 142.819 151.014 142.786 151.216Z" fill="#EB996E"/>
<path d="M144.725 145.187C144.462 145.545 144.247 145.935 144.085 146.349C143.798 147.391 143.598 148.456 143.487 149.531C143.29 150.792 143.101 151.931 142.951 152.755C142.896 153.204 142.798 153.647 142.659 154.077C142.661 153.624 142.702 153.173 142.781 152.727C142.885 151.898 143.05 150.755 143.252 149.493C143.454 148.232 143.586 147.079 143.935 146.288C144.058 145.978 144.232 145.69 144.448 145.436C144.603 145.248 144.716 145.177 144.725 145.187Z" fill="#EB996E"/>
<path d="M143.398 133.382C143.464 133.532 143.506 133.691 143.525 133.853C143.591 134.154 143.671 134.592 143.76 135.138C143.939 136.225 144.137 137.736 144.264 139.416C144.391 141.096 144.415 142.621 144.396 143.723C144.396 144.273 144.372 144.721 144.349 145.027C144.353 145.185 144.334 145.344 144.292 145.497C144.235 144.906 144.212 144.312 144.222 143.718C144.198 142.617 144.142 141.101 144.019 139.43C143.897 137.759 143.728 136.249 143.591 135.157C143.492 134.57 143.427 133.977 143.398 133.382Z" fill="#EB996E"/>
<path d="M153.814 147.201C153.635 147.316 153.431 147.386 153.22 147.404C153.008 147.422 152.795 147.388 152.6 147.305C151.908 147.097 151.588 146.566 151.658 146.542C151.982 146.748 152.324 146.924 152.68 147.069C153.053 147.144 153.433 147.189 153.814 147.201Z" fill="#EB996E"/>
<path d="M141.162 161.377L131.627 165.388H125.941C125.941 165.388 120.321 167.143 119.455 172.415C118.589 177.686 118.467 180.392 120.938 181.047C123.409 181.701 130.389 181.771 133.848 180.623C137.308 179.475 146.373 172.151 146.373 172.151L147.243 166.861L141.162 161.377Z" fill="#FFBE9D"/>
<path d="M143.398 167.204C143.398 167.204 143.29 167.124 143.125 166.955C142.898 166.709 142.692 166.444 142.508 166.164C141.911 165.233 141.462 164.216 141.176 163.147C140.881 162.088 140.684 161.004 140.588 159.909C140.525 159.457 140.512 158.999 140.551 158.544C140.652 158.985 140.722 159.434 140.758 159.885C140.903 160.964 141.121 162.032 141.412 163.081C141.696 164.128 142.114 165.134 142.654 166.075C143.083 166.785 143.431 167.171 143.398 167.204Z" fill="#EB996E"/>
<path d="M147.554 168.875C147.806 168.215 147.988 167.531 148.095 166.832C148.309 165.13 147.849 163.411 146.815 162.041C146.236 161.232 145.582 160.526 145.031 159.838C144.53 159.239 144.097 158.586 143.742 157.89C143.508 157.415 143.349 156.907 143.271 156.384C143.242 156.193 143.242 156 143.271 155.809C143.381 156.506 143.6 157.181 143.92 157.81C144.291 158.482 144.731 159.113 145.234 159.692C145.784 160.361 146.443 161.067 147.036 161.895C147.613 162.672 148.019 163.562 148.227 164.507C148.387 165.282 148.408 166.079 148.288 166.861C148.209 167.382 148.064 167.892 147.855 168.376C147.78 168.546 147.709 168.673 147.662 168.758C147.615 168.842 147.559 168.88 147.554 168.875Z" fill="#EB996E"/>
<path d="M132.846 145.907C132 144.535 131.224 143.121 130.521 141.671C129.297 139.317 128.355 137.359 128.412 137.326C129.258 138.698 130.034 140.112 130.737 141.562C131.514 142.974 132.217 144.424 132.846 145.907Z" fill="white"/>
<path d="M148.26 128.732C148.661 127.525 149.141 126.346 149.696 125.202C150.177 124.026 150.732 122.882 151.357 121.776C150.953 122.981 150.474 124.16 149.921 125.306C149.441 126.482 148.886 127.626 148.26 128.732Z" fill="white"/>
<path d="M163.383 139.877C162.602 139.126 161.878 138.317 161.217 137.458C160.498 136.65 159.838 135.789 159.245 134.884C160.027 135.633 160.749 136.442 161.406 137.303C162.128 138.111 162.789 138.971 163.383 139.877Z" fill="white"/>
<path d="M159.904 155.207C160.382 154.347 160.926 153.525 161.533 152.75C162.079 151.931 162.691 151.158 163.364 150.439C162.887 151.3 162.343 152.122 161.735 152.896C161.192 153.717 160.58 154.491 159.904 155.207Z" fill="white"/>
<path d="M155.226 176.862C155.006 176.571 154.821 176.255 154.675 175.921C154.365 175.319 153.964 174.476 153.56 173.53C153.155 172.584 152.83 171.704 152.618 171.069C152.478 170.73 152.377 170.376 152.317 170.014C152.511 170.326 152.669 170.66 152.788 171.007L153.8 173.431C154.19 174.33 154.539 175.144 154.845 175.846C155.009 176.169 155.137 176.51 155.226 176.862Z" fill="white"/>
<path d="M168.499 167.656C167.536 167.592 166.581 167.449 165.642 167.228C164.683 167.086 163.738 166.862 162.818 166.56C164.728 166.765 166.617 167.132 168.466 167.656H168.499Z" fill="white"/>
<path d="M178.853 147.422C179.697 146.33 180.605 145.289 181.574 144.306C182.485 143.265 183.456 142.278 184.483 141.351C183.636 142.443 182.726 143.485 181.757 144.471C180.847 145.51 179.877 146.495 178.853 147.422Z" fill="white"/>
<path d="M189.208 174.406C189.156 174.453 187.636 172.688 185.81 170.475C183.984 168.263 182.548 166.428 182.6 166.385C182.652 166.343 184.172 168.103 185.998 170.315C187.824 172.528 189.25 174.363 189.208 174.406Z" fill="white"/>
<path d="M124.821 162.907C124.854 162.973 123.465 163.679 121.95 164.842C120.434 166.004 119.38 167.153 119.323 167.101C119.495 166.803 119.71 166.533 119.964 166.301C120.527 165.699 121.141 165.146 121.799 164.649C122.454 164.149 123.15 163.705 123.88 163.321C124.172 163.138 124.489 162.999 124.821 162.907Z" fill="white"/>
<path d="M128.699 152.496C128.4 153.162 128.029 153.793 127.593 154.379C127.222 155.009 126.781 155.596 126.28 156.13C126.58 155.464 126.951 154.833 127.386 154.247C127.757 153.616 128.197 153.028 128.699 152.496Z" fill="white"/>
<path d="M137.435 162.719C136.681 161.521 136.359 160.101 136.522 158.695C136.592 158.695 136.616 159.636 136.875 160.733C137.134 161.829 137.501 162.686 137.435 162.719Z" fill="white"/>
<path d="M138.729 130.281C138.144 130.485 137.535 130.613 136.917 130.662C136.309 130.789 135.687 130.835 135.067 130.798C135.654 130.594 136.265 130.466 136.884 130.417C137.491 130.292 138.111 130.246 138.729 130.281Z" fill="white"/>
<path d="M145.29 118.641C144.276 119.391 143.169 120.005 141.995 120.467C142.477 120.059 143.01 119.715 143.582 119.446C144.115 119.106 144.689 118.836 145.29 118.641Z" fill="white"/>
<path d="M163.745 123.559C163.08 122.883 162.472 122.153 161.928 121.376C161.324 120.646 160.783 119.866 160.309 119.046C161.583 120.448 162.732 121.958 163.745 123.559Z" fill="white"/>
<path d="M187.17 135.26C185.873 133.982 184.897 132.414 184.323 130.685C184.393 130.657 184.897 131.754 185.687 133.01C186.478 134.267 187.227 135.213 187.17 135.26Z" fill="white"/>
<path d="M196.113 138.207C195.545 139.861 194.82 141.458 193.948 142.974C194.199 142.136 194.525 141.321 194.922 140.541C195.244 139.727 195.643 138.945 196.113 138.207Z" fill="white"/>
<path d="M197.365 126.002C196.509 125.171 195.713 124.281 194.983 123.338C194.19 122.448 193.459 121.504 192.795 120.514C194.441 122.237 195.968 124.071 197.365 126.002Z" fill="white"/>
<path d="M183.706 116.09C183.557 115.34 183.486 114.577 183.494 113.812C183.423 113.049 183.434 112.28 183.527 111.52C183.676 112.27 183.747 113.033 183.739 113.798C183.813 114.561 183.802 115.329 183.706 116.09Z" fill="white"/>
<path d="M194.856 115.473C193.902 115.723 192.929 115.895 191.947 115.986C190.977 116.157 189.995 116.247 189.01 116.255C189.964 116.005 190.937 115.833 191.919 115.742C192.889 115.571 193.871 115.481 194.856 115.473Z" fill="white"/>
<path d="M212.379 128.355C211.725 127.283 211.141 126.17 210.628 125.023C210.046 123.91 209.537 122.761 209.103 121.583C209.759 122.654 210.346 123.768 210.859 124.915C211.439 126.028 211.947 127.177 212.379 128.355Z" fill="white"/>
<path d="M209.447 139.487C209.644 137.689 210 135.912 210.51 134.178C210.454 135.081 210.317 135.977 210.101 136.856C209.964 137.751 209.745 138.632 209.447 139.487Z" fill="white"/>
<path d="M217.561 148.26C217.012 147.087 216.54 145.88 216.149 144.645C215.682 143.438 215.294 142.203 214.986 140.946C215.532 142.122 216.004 143.331 216.398 144.565C216.863 145.771 217.251 147.005 217.561 148.26Z" fill="white"/>
<path d="M216.427 153.395C215.586 153.268 214.779 152.979 214.05 152.543C213.284 152.175 212.6 151.657 212.04 151.018C212.087 150.962 212.953 151.677 214.167 152.327C215.382 152.976 216.45 153.324 216.427 153.395Z" fill="white"/>
<path d="M226.861 165.096C226.228 164.068 225.735 162.96 225.398 161.801C226.031 162.829 226.524 163.937 226.861 165.096Z" fill="white"/>
<path d="M165.303 181.418C165.102 180.74 164.979 180.04 164.936 179.333C164.816 178.636 164.775 177.927 164.813 177.22C165.028 177.903 165.159 178.609 165.204 179.324C165.317 180.016 165.35 180.719 165.303 181.418Z" fill="white"/>
<path d="M197.275 180.609C197.297 179.92 197.4 179.236 197.581 178.571C197.687 177.89 197.872 177.223 198.132 176.585C198.11 177.274 198.006 177.958 197.821 178.623C197.718 179.304 197.535 179.971 197.275 180.609Z" fill="white"/>
<path d="M203.403 87.2804L207.564 80.0133C204.998 75.8714 204.074 70.9194 204.975 66.131C205.875 61.3426 208.534 57.0642 212.429 54.137C216.324 51.2098 221.173 49.8456 226.023 50.3126C230.873 50.7797 235.373 53.0441 238.637 56.6607C241.902 60.2774 243.696 64.9846 243.666 69.8568C243.636 74.729 241.784 79.4137 238.475 82.9899C235.166 86.5661 230.639 88.7749 225.784 89.1822C220.928 89.5894 216.096 88.1656 212.238 85.1907L203.403 87.2804Z" fill="#FAFAFA"/>
<path d="M203.403 87.2804L212.238 85.266H212.327L212.271 85.1907L212.186 85.2707C213.424 86.2305 214.77 87.0424 216.196 87.6899C217.896 88.4508 219.697 88.9644 221.543 89.2149C222.565 89.3576 223.599 89.4096 224.63 89.3702C225.162 89.3419 225.699 89.3278 226.245 89.2855L227.892 89.036C232.801 88.0734 237.159 85.2761 240.078 81.2135C241.699 78.9663 242.822 76.3989 243.372 73.6829C243.932 70.8095 243.854 67.8481 243.142 65.0085C242.402 62.048 240.969 59.3056 238.962 57.0071L238.157 56.0893C237.894 55.7928 237.583 55.5528 237.301 55.2798C237.018 55.0068 236.736 54.7338 236.416 54.5079L235.475 53.8113C235.168 53.5743 234.844 53.3603 234.505 53.1712L233.517 52.5688L232.481 52.0651C232.142 51.8881 231.793 51.7309 231.436 51.5945C228.66 50.5003 225.673 50.0419 222.696 50.2531C219.889 50.4419 217.157 51.2453 214.695 52.6064C210.255 55.0757 206.936 59.1596 205.427 64.0107C204.823 66.0683 204.537 68.2064 204.58 70.3505C204.628 72.211 204.945 74.0547 205.521 75.8244C206.007 77.2951 206.662 78.7041 207.475 80.0227V79.9616C204.867 84.6353 203.592 86.918 203.389 87.2757C203.596 86.9227 204.905 84.6541 207.573 80.018V79.9898V79.9616C206.781 78.6458 206.146 77.2414 205.681 75.7773C205.108 74.0198 204.791 72.189 204.74 70.3411C204.709 68.2168 204.999 66.0999 205.601 64.0624C207.112 59.277 210.398 55.2517 214.784 52.8135C217.222 51.4553 219.93 50.6517 222.715 50.4602C225.656 50.2529 228.605 50.7081 231.347 51.7922C231.699 51.9285 232.044 52.0857 232.378 52.2628L233.404 52.7617L234.392 53.3736C234.72 53.5618 235.035 53.7725 235.333 54.0043L236.275 54.6962C236.59 54.9221 236.854 55.2045 237.145 55.4586C237.437 55.7128 237.734 55.967 237.993 56.2588L238.779 57.1201C240.763 59.3966 242.179 62.1113 242.911 65.0414C243.618 67.8449 243.697 70.7701 243.142 73.6076C242.604 76.2946 241.496 78.8352 239.894 81.0582C237.012 85.0804 232.708 87.8553 227.854 88.8195L226.226 89.0737C225.685 89.116 225.153 89.1348 224.626 89.1631C223.604 89.2048 222.58 89.1575 221.566 89.0219C219.732 88.7846 217.941 88.287 216.248 87.544C214.827 86.9089 213.486 86.1096 212.252 85.1624L211.889 84.8847L212.167 85.2471L212.2 85.153L203.403 87.2804Z" fill="#263238"/>
<path d="M229.403 68.9762C229.408 69.3465 229.521 69.7072 229.73 70.0132C229.939 70.3191 230.233 70.5568 230.576 70.6963C230.919 70.8359 231.296 70.8712 231.659 70.7978C232.022 70.7244 232.355 70.5456 232.617 70.2837C232.879 70.0219 233.057 69.6886 233.131 69.3256C233.204 68.9626 233.169 68.586 233.029 68.243C232.89 67.8999 232.652 67.6057 232.346 67.397C232.04 67.1884 231.679 67.0746 231.309 67.07C231.058 67.0668 230.809 67.114 230.576 67.2086C230.343 67.3033 230.132 67.4436 229.954 67.6212C229.777 67.7989 229.636 68.0103 229.542 68.243C229.447 68.4757 229.4 68.725 229.403 68.9762Z" fill="#263238"/>
<path d="M221.783 68.9762C221.788 69.3475 221.902 69.7092 222.112 70.0157C222.321 70.3222 222.617 70.5598 222.961 70.6987C223.306 70.8376 223.683 70.8715 224.047 70.7962C224.411 70.721 224.744 70.5398 225.005 70.2756C225.266 70.0114 225.443 69.6759 225.514 69.3114C225.584 68.9469 225.546 68.5695 225.403 68.2269C225.259 67.8842 225.018 67.5916 224.709 67.3857C224.4 67.1799 224.037 67.07 223.666 67.07C223.416 67.07 223.17 67.1195 222.94 67.2155C222.71 67.3116 222.501 67.4524 222.326 67.6297C222.151 67.807 222.013 68.0174 221.919 68.2485C221.826 68.4796 221.78 68.727 221.783 68.9762Z" fill="#263238"/>
<path d="M214.182 68.0254C214 68.3484 213.917 68.7179 213.944 69.0876C213.971 69.4573 214.107 69.8107 214.334 70.1036C214.562 70.3965 214.87 70.6158 215.222 70.734C215.573 70.8522 215.951 70.8641 216.309 70.7681C216.667 70.6721 216.989 70.4725 217.234 70.1944C217.479 69.9163 217.637 69.572 217.687 69.2047C217.737 68.8374 217.678 68.4635 217.517 68.1298C217.355 67.7961 217.099 67.5174 216.78 67.3288C216.564 67.2014 216.325 67.1183 216.077 67.0843C215.829 67.0504 215.576 67.0663 215.334 67.1312C215.092 67.1961 214.866 67.3086 214.668 67.4621C214.47 67.6157 214.305 67.8072 214.182 68.0254Z" fill="#263238"/>
</svg>
